<svg xmlns="http://www.w3.org/2000/svg" id="Laag_1" data-name="Laag 1" viewBox="0 0 295.88 73.12"><defs><style>.cls-1{fill:#fff}.cls-3{fill:#faa21b}</style></defs><path d="M90.65 30.34c1.22-2.24 2.93-3.96 5.11-5.17 2.19-1.21 4.69-1.81 7.52-1.81 3.62 0 6.64.95 9.07 2.84 2.43 1.89 4.02 4.56 4.78 8.01h-9.4c-.79-2.2-2.32-3.31-4.6-3.31-1.62 0-2.91.63-3.87 1.89-.96 1.26-1.45 3.06-1.45 5.4s.48 4.14 1.45 5.4c.96 1.26 2.26 1.89 3.87 1.89 2.27 0 3.81-1.1 4.6-3.31h9.4c-.76 3.38-2.36 6.03-4.8 7.96-2.45 1.93-5.46 2.89-9.04 2.89-2.82 0-5.33-.6-7.52-1.81-2.19-1.21-3.89-2.93-5.11-5.17-1.22-2.24-1.83-4.86-1.83-7.85s.61-5.61 1.83-7.85M139.26 43.52c1.19-1.24 1.78-3.01 1.78-5.32s-.58-4.08-1.73-5.32-2.58-1.86-4.26-1.86-3.15.61-4.29 1.83c-1.14 1.22-1.7 3.01-1.7 5.35s.56 4.08 1.68 5.32c1.12 1.24 2.52 1.86 4.21 1.86s3.13-.62 4.31-1.86m-11.93 7.69c-2.26-1.21-4.03-2.93-5.32-5.17-1.29-2.24-1.94-4.86-1.94-7.85s.65-5.57 1.96-7.83 3.1-3.99 5.37-5.19c2.27-1.21 4.82-1.81 7.65-1.81s5.37.6 7.65 1.81c2.27 1.21 4.06 2.94 5.37 5.19 1.31 2.26 1.96 4.87 1.96 7.83s-.66 5.57-1.99 7.83-3.13 3.99-5.42 5.19c-2.29 1.21-4.85 1.81-7.67 1.81s-5.37-.6-7.62-1.81" class="cls-3"/><path d="m167.7 44.34 6.26-20.56h9.4l-10.23 28.83h-10.9L152 23.78h9.45l6.25 20.56zM205.08 32.98c-1.22-1.27-2.71-1.91-4.47-1.91s-3.25.63-4.47 1.89c-1.22 1.26-1.83 2.99-1.83 5.19s.61 3.95 1.83 5.24c1.22 1.29 2.71 1.94 4.47 1.94s3.25-.64 4.47-1.91c1.22-1.27 1.83-3.01 1.83-5.22s-.61-3.94-1.83-5.22M187 30.34c1.12-2.24 2.64-3.96 4.57-5.17 1.93-1.21 4.08-1.81 6.46-1.81 2.03 0 3.81.41 5.35 1.24 1.53.83 2.71 1.91 3.54 3.25v-4.08h8.83V52.6h-8.83v-4.08c-.86 1.34-2.06 2.43-3.59 3.25-1.53.83-3.32 1.24-5.35 1.24-2.34 0-4.48-.61-6.41-1.83-1.93-1.22-3.45-2.96-4.57-5.22s-1.68-4.86-1.68-7.83.56-5.56 1.68-7.8M240.16 32.98c-1.22-1.27-2.71-1.91-4.47-1.91s-3.25.63-4.47 1.89c-1.22 1.26-1.83 2.99-1.83 5.19s.61 3.95 1.83 5.24c1.22 1.29 2.71 1.94 4.47 1.94s3.25-.64 4.47-1.91c1.22-1.27 1.83-3.01 1.83-5.22s-.61-3.94-1.83-5.22m-18.08-2.64c1.12-2.24 2.64-3.96 4.57-5.17 1.93-1.21 4.08-1.81 6.46-1.81 1.89 0 3.62.4 5.19 1.19 1.57.79 2.8 1.86 3.69 3.2V14.37h8.83V52.6h-8.83v-4.13c-.83 1.38-2.01 2.48-3.54 3.31-1.53.83-3.32 1.24-5.35 1.24-2.38 0-4.53-.61-6.46-1.83-1.93-1.22-3.45-2.96-4.57-5.22s-1.68-4.86-1.68-7.83.56-5.56 1.68-7.8M266.07 52.61h-8.83V23.78h8.83v28.83Zm-8.19-33.2c-.98-.91-1.47-2.04-1.47-3.38s.49-2.52 1.47-3.44c.98-.91 2.25-1.37 3.8-1.37s2.76.46 3.75 1.37c.98.91 1.47 2.06 1.47 3.44s-.49 2.47-1.47 3.38c-.98.91-2.23 1.37-3.75 1.37s-2.82-.46-3.8-1.37M277.49 51.73c-1.96-.86-3.51-2.04-4.65-3.54a9.311 9.311 0 0 1-1.91-5.04h8.73c.1 1 .57 1.81 1.39 2.43.83.62 1.84.93 3.05.93 1.1 0 1.95-.21 2.56-.65.6-.43.9-.99.9-1.68 0-.83-.43-1.44-1.29-1.83-.86-.4-2.26-.83-4.18-1.32-2.07-.48-3.79-.99-5.17-1.52s-2.57-1.38-3.56-2.53c-1-1.15-1.5-2.71-1.5-4.68 0-1.65.46-3.16 1.37-4.52.91-1.36 2.26-2.44 4.03-3.23 1.77-.79 3.88-1.19 6.33-1.19 3.62 0 6.47.9 8.55 2.69 2.08 1.79 3.28 4.17 3.59 7.13h-8.16c-.14-1-.58-1.79-1.32-2.38-.74-.59-1.71-.88-2.92-.88-1.03 0-1.83.2-2.38.59-.55.4-.83.94-.83 1.63 0 .83.44 1.45 1.32 1.86.88.41 2.25.83 4.11 1.24 2.14.55 3.87 1.09 5.22 1.63 1.34.53 2.52 1.39 3.54 2.58 1.02 1.19 1.54 2.78 1.58 4.78 0 1.69-.47 3.2-1.42 4.52-.95 1.33-2.31 2.37-4.08 3.13-1.77.76-3.83 1.14-6.17 1.14-2.51 0-4.75-.43-6.72-1.29" class="cls-1"/><path d="M73.12 36.56c0 20.19-16.37 36.56-36.56 36.56S0 56.75 0 36.56 16.37 0 36.56 0s36.56 16.37 36.56 36.56" class="cls-3"/><path d="m42.04 29.02 5.48-5.48a5.83 5.83 0 0 0 0-8.25l-4.71-4.71a5.83 5.83 0 0 0-8.25 0l-7.11 7.11c-10.42 10.42-10.42 27.31 0 37.73l7.11 7.11a5.83 5.83 0 0 0 8.25 0l4.71-4.71a5.83 5.83 0 0 0 0-8.25l-5.48-5.48c-4.16-4.16-4.16-10.91 0-15.07" class="cls-1"/><path d="M11.56 36.56c0 5.39 4.37 9.75 9.75 9.75s9.75-4.37 9.75-9.75-4.37-9.75-9.75-9.75-9.75 4.37-9.75 9.75" style="fill:#0e1e3b"/></svg>